<mxfile host="app.diagrams.net" modified="2024-05-04T12:19:40.822Z" agent="Mozilla/5.0 (Windows NT 10.0; Win64; x64) AppleWebKit/537.36 (KHTML, like Gecko) Chrome/124.0.0.0 Safari/537.36" etag="_vrpBU3TJFxGawvWMEtK" version="24.2.1" type="device">
  <diagram name="Halaman-1" id="I0_2To58oD9dlG2aqBF6">
    <mxGraphModel dx="1665" dy="585" grid="1" gridSize="11" guides="1" tooltips="1" connect="1" arrows="1" fold="1" page="1" pageScale="1" pageWidth="1654" pageHeight="2336" math="0" shadow="0">
      <root>
        <mxCell id="0" />
        <mxCell id="1" parent="0" />
        <mxCell id="9mhjYZKvzieSpXCSwD0C-1" value="Move&lt;div data-sider-select-id=&quot;39caa214-5131-44a2-ba79-34bbfde4df94&quot;&gt;&amp;gt;&amp;gt;class interface&amp;lt;&amp;lt;&lt;/div&gt;&lt;div style=&quot;text-align: left;&quot; data-sider-select-id=&quot;39caa214-5131-44a2-ba79-34bbfde4df94&quot;&gt;&lt;span style=&quot;background-color: initial;&quot;&gt;+ void move();&amp;nbsp;&lt;/span&gt;&lt;/div&gt;&lt;div data-sider-select-id=&quot;39caa214-5131-44a2-ba79-34bbfde4df94&quot;&gt;&lt;br&gt;&lt;/div&gt;" style="rounded=0;whiteSpace=wrap;html=1;align=center;" vertex="1" parent="1">
          <mxGeometry x="362" y="77" width="176" height="63" as="geometry" />
        </mxCell>
        <mxCell id="9mhjYZKvzieSpXCSwD0C-2" value="Dog&lt;div&gt;&amp;gt;&amp;gt;class abstract&amp;lt;&amp;lt;&lt;/div&gt;&lt;div style=&quot;text-align: left;&quot;&gt;&lt;p style=&quot;text-indent:-18.0pt;mso-list:l0 level1 lfo1&quot; class=&quot;MsoListParagraphCxSpFirst&quot;&gt;&lt;span data-sider-select-id=&quot;6650ae27-de2d-4866-9aae-4b1c3c591eb6&quot; style=&quot;mso-bidi-font-size:12.0pt;line-height:150%;font-family:&amp;quot;Courier New&amp;quot;;&lt;br/&gt;mso-fareast-font-family:&amp;quot;Courier New&amp;quot;&quot;&gt;o&lt;span style=&quot;font-variant-numeric: normal; font-variant-east-asian: normal; font-variant-alternates: normal; font-kerning: auto; font-optical-sizing: auto; font-feature-settings: normal; font-variation-settings: normal; font-variant-position: normal; font-stretch: normal; font-size: 7pt; line-height: normal; font-family: &amp;quot;Times New Roman&amp;quot;;&quot;&gt;&amp;nbsp;&amp;nbsp; &lt;/span&gt;&lt;/span&gt;&lt;span style=&quot;mso-bidi-font-size:12.0pt;line-height:150%&quot;&gt;int position;&lt;/span&gt;&lt;/p&gt;&lt;p style=&quot;text-indent:-18.0pt;mso-list:l0 level1 lfo1&quot; class=&quot;MsoListParagraphCxSpMiddle&quot;&gt;&lt;span style=&quot;mso-bidi-font-size:12.0pt;line-height:150%;font-family:&amp;quot;Courier New&amp;quot;;&lt;br/&gt;mso-fareast-font-family:&amp;quot;Courier New&amp;quot;&quot;&gt;o&lt;span style=&quot;font-variant-numeric: normal; font-variant-east-asian: normal; font-variant-alternates: normal; font-kerning: auto; font-optical-sizing: auto; font-feature-settings: normal; font-variation-settings: normal; font-variant-position: normal; font-stretch: normal; font-size: 7pt; line-height: normal; font-family: &amp;quot;Times New Roman&amp;quot;;&quot;&gt;&amp;nbsp;&amp;nbsp; &lt;/span&gt;&lt;/span&gt;&lt;span style=&quot;mso-bidi-font-size:12.0pt;line-height:150%&quot;&gt;int averageLength;&lt;/span&gt;&lt;/p&gt;&lt;p style=&quot;text-indent:-18.0pt;mso-list:l0 level1 lfo1&quot; class=&quot;MsoListParagraphCxSpLast&quot;&gt;&lt;span style=&quot;font-variant-numeric: normal; font-variant-east-asian: normal; font-variant-alternates: normal; font-kerning: auto; font-optical-sizing: auto; font-feature-settings: normal; font-variation-settings: normal; font-variant-position: normal; font-stretch: normal; line-height: normal;&quot;&gt;&lt;font face=&quot;Courier New&quot;&gt;+&lt;/font&gt;&lt;/span&gt;&lt;span style=&quot;font-family: &amp;quot;Times New Roman&amp;quot;; font-variant-numeric: normal; font-variant-east-asian: normal; font-variant-alternates: normal; font-kerning: auto; font-optical-sizing: auto; font-feature-settings: normal; font-variation-settings: normal; font-variant-position: normal; font-stretch: normal; font-size: 7pt; line-height: normal;&quot;&gt;&amp;nbsp;&amp;nbsp;&lt;/span&gt;&lt;span data-sider-select-id=&quot;235390a3-b9e8-4533-8632-89850daf972d&quot; style=&quot;mso-bidi-font-size:12.0pt;&lt;br/&gt;line-height:150%&quot;&gt;abstract void describe();&lt;/span&gt;&lt;/p&gt;&lt;/div&gt;" style="whiteSpace=wrap;html=1;rounded=0;" vertex="1" parent="1">
          <mxGeometry x="350" y="270" width="200" height="180" as="geometry" />
        </mxCell>
        <mxCell id="9mhjYZKvzieSpXCSwD0C-4" value="Car&lt;div data-sider-select-id=&quot;90edc375-cdfa-4511-90c6-9f91d12b055f&quot;&gt;&amp;gt;&amp;gt;class&amp;lt;&amp;lt;&lt;/div&gt;&lt;div&gt;&lt;p style=&quot;text-align: justify; text-indent: -18pt;&quot; class=&quot;MsoListParagraphCxSpFirst&quot;&gt;&lt;span data-sider-select-id=&quot;61506814-407b-4d32-88c6-f63ec2456075&quot; style=&quot;mso-bidi-font-size:12.0pt;&lt;br/&gt;line-height:150%;font-family:&amp;quot;Courier New&amp;quot;;mso-fareast-font-family:&amp;quot;Courier New&amp;quot;&quot;&gt;o&lt;span style=&quot;font-variant-numeric: normal; font-variant-east-asian: normal; font-variant-alternates: normal; font-kerning: auto; font-optical-sizing: auto; font-feature-settings: normal; font-variation-settings: normal; font-variant-position: normal; font-stretch: normal; font-size: 7pt; line-height: normal; font-family: &amp;quot;Times New Roman&amp;quot;;&quot;&gt;&amp;nbsp;&amp;nbsp;&lt;/span&gt;&lt;/span&gt;&lt;span style=&quot;mso-bidi-font-size:12.0pt;&lt;br/&gt;line-height:150%&quot;&gt;int totalForwardGear;&lt;/span&gt;&lt;/p&gt;&lt;p style=&quot;text-align: justify; text-indent: -18pt;&quot; class=&quot;MsoListParagraphCxSpFirst&quot;&gt;&lt;span style=&quot;text-indent: -18pt; background-color: initial; font-family: &amp;quot;Courier New&amp;quot;;&quot;&gt;o&lt;span style=&quot;font-variant-numeric: normal; font-variant-east-asian: normal; font-variant-alternates: normal; font-kerning: auto; font-optical-sizing: auto; font-feature-settings: normal; font-variation-settings: normal; font-variant-position: normal; font-stretch: normal; font-size: 7pt; line-height: normal; font-family: &amp;quot;Times New Roman&amp;quot;;&quot;&gt;&amp;nbsp;&amp;nbsp;&lt;/span&gt;&lt;/span&gt;&lt;span data-sider-select-id=&quot;b563de92-8527-44f2-b097-122ad15af536&quot; style=&quot;text-indent: -18pt; background-color: initial;&quot;&gt;String color;&lt;/span&gt;&lt;/p&gt;&lt;p style=&quot;text-align: justify; text-indent: -18pt;&quot; class=&quot;MsoListParagraphCxSpMiddle&quot;&gt;&lt;span style=&quot;text-indent: -18pt; background-color: initial; font-family: &amp;quot;Courier New&amp;quot;;&quot;&gt;o&lt;/span&gt;&lt;span style=&quot;text-indent: -18pt; background-color: initial; font-variant-numeric: normal; font-variant-east-asian: normal; font-variant-alternates: normal; font-kerning: auto; font-optical-sizing: auto; font-feature-settings: normal; font-variation-settings: normal; font-variant-position: normal; font-stretch: normal; font-size: 7pt; line-height: normal; font-family: &amp;quot;Times New Roman&amp;quot;;&quot;&gt;&amp;nbsp;&amp;nbsp;&lt;/span&gt;&lt;span data-sider-select-id=&quot;00cd4271-1db8-4062-bb2d-14a09b076968&quot; style=&quot;text-indent: -18pt; background-color: initial;&quot;&gt;int maxSpeed;&lt;/span&gt;&lt;/p&gt;&lt;p style=&quot;text-align: justify; text-indent: -18pt;&quot; class=&quot;MsoListParagraphCxSpLast&quot;&gt;&lt;span style=&quot;mso-bidi-font-size:12.0pt;&lt;br/&gt;line-height:150%;font-family:&amp;quot;Courier New&amp;quot;;mso-fareast-font-family:&amp;quot;Courier New&amp;quot;&quot;&gt;o&lt;span style=&quot;font-variant-numeric: normal; font-variant-east-asian: normal; font-variant-alternates: normal; font-kerning: auto; font-optical-sizing: auto; font-feature-settings: normal; font-variation-settings: normal; font-variant-position: normal; font-stretch: normal; font-size: 7pt; line-height: normal; font-family: &amp;quot;Times New Roman&amp;quot;;&quot;&gt;&amp;nbsp;&amp;nbsp;&lt;/span&gt;&lt;/span&gt;&lt;span style=&quot;mso-bidi-font-size:12.0pt;&lt;br/&gt;line-height:150%&quot;&gt;int currentGear;&lt;/span&gt;&lt;/p&gt;&lt;p style=&quot;text-align: justify; text-indent: -18pt;&quot; class=&quot;MsoListParagraphCxSpLast&quot;&gt;&lt;span data-sider-select-id=&quot;bac84af4-8d17-4adb-ae1d-749b432bcf31&quot; style=&quot;mso-bidi-font-size:12.0pt;&lt;br/&gt;line-height:150%&quot;&gt;+ void move();&lt;/span&gt;&lt;/p&gt;&lt;/div&gt;" style="whiteSpace=wrap;html=1;rounded=0;" vertex="1" parent="1">
          <mxGeometry x="11" y="270" width="199" height="180" as="geometry" />
        </mxCell>
        <mxCell id="9mhjYZKvzieSpXCSwD0C-6" value="Smartphone&lt;div&gt;&amp;gt;&amp;gt;class&amp;lt;&amp;lt;&lt;/div&gt;&lt;div style=&quot;text-align: left;&quot;&gt;&lt;span style=&quot;background-color: initial; text-indent: -18pt; line-height: 150%; font-family: &amp;quot;Courier New&amp;quot;;&quot; data-sider-select-id=&quot;880b7a9c-5d0b-4926-94d1-e120e2bc9ffb&quot;&gt;o&lt;span style=&quot;font-variant-numeric: normal; font-variant-east-asian: normal; font-variant-alternates: normal; font-kerning: auto; font-optical-sizing: auto; font-feature-settings: normal; font-variation-settings: normal; font-variant-position: normal; font-stretch: normal; font-size: 7pt; line-height: normal; font-family: &amp;quot;Times New Roman&amp;quot;;&quot;&gt;&amp;nbsp;&amp;nbsp; &lt;/span&gt;&lt;/span&gt;&lt;span style=&quot;background-color: initial; text-indent: -18pt; line-height: 150%;&quot;&gt;int price;&lt;/span&gt;&lt;/div&gt;&lt;div style=&quot;text-align: left;&quot;&gt;&lt;span style=&quot;text-indent: -18pt; background-color: initial; line-height: 150%; font-family: &amp;quot;Courier New&amp;quot;;&quot; data-sider-select-id=&quot;354b98ab-966e-42d7-9158-ad89dc0631b8&quot;&gt;o&lt;span style=&quot;font-variant-numeric: normal; font-variant-east-asian: normal; font-variant-alternates: normal; font-kerning: auto; font-optical-sizing: auto; font-feature-settings: normal; font-variation-settings: normal; font-variant-position: normal; font-stretch: normal; font-size: 7pt; line-height: normal; font-family: &amp;quot;Times New Roman&amp;quot;;&quot;&gt;&amp;nbsp;&amp;nbsp; &lt;/span&gt;&lt;/span&gt;&lt;span style=&quot;text-indent: -18pt; background-color: initial; line-height: 150%;&quot;&gt;String brand;&lt;/span&gt;&lt;/div&gt;&lt;div style=&quot;text-align: left;&quot;&gt;&lt;span style=&quot;text-indent: -18pt; background-color: initial; line-height: 150%;&quot;&gt;+ void move();&lt;/span&gt;&lt;/div&gt;" style="whiteSpace=wrap;html=1;rounded=0;align=center;" vertex="1" parent="1">
          <mxGeometry x="700" y="270" width="180" height="180" as="geometry" />
        </mxCell>
        <mxCell id="9mhjYZKvzieSpXCSwD0C-12" value="" style="endArrow=none;html=1;rounded=0;" edge="1" parent="1">
          <mxGeometry width="50" height="50" relative="1" as="geometry">
            <mxPoint x="410" y="200" as="sourcePoint" />
            <mxPoint x="800" y="200" as="targetPoint" />
          </mxGeometry>
        </mxCell>
        <mxCell id="9mhjYZKvzieSpXCSwD0C-14" value="" style="endArrow=none;html=1;rounded=0;exitX=0.556;exitY=0;exitDx=0;exitDy=0;exitPerimeter=0;" edge="1" parent="1" source="9mhjYZKvzieSpXCSwD0C-6">
          <mxGeometry width="50" height="50" relative="1" as="geometry">
            <mxPoint x="800" y="260" as="sourcePoint" />
            <mxPoint x="800" y="200" as="targetPoint" />
          </mxGeometry>
        </mxCell>
        <mxCell id="9mhjYZKvzieSpXCSwD0C-15" value="" style="endArrow=none;html=1;rounded=0;" edge="1" parent="1">
          <mxGeometry width="50" height="50" relative="1" as="geometry">
            <mxPoint x="120" y="264" as="sourcePoint" />
            <mxPoint x="120" y="200" as="targetPoint" />
          </mxGeometry>
        </mxCell>
        <mxCell id="9mhjYZKvzieSpXCSwD0C-16" value="" style="endArrow=none;html=1;rounded=0;" edge="1" parent="1">
          <mxGeometry width="50" height="50" relative="1" as="geometry">
            <mxPoint x="120" y="200" as="sourcePoint" />
            <mxPoint x="410" y="200" as="targetPoint" />
          </mxGeometry>
        </mxCell>
        <mxCell id="9mhjYZKvzieSpXCSwD0C-18" value="" style="endArrow=classic;html=1;rounded=0;entryX=0.5;entryY=1;entryDx=0;entryDy=0;exitX=0.5;exitY=0;exitDx=0;exitDy=0;" edge="1" parent="1" source="9mhjYZKvzieSpXCSwD0C-2">
          <mxGeometry width="50" height="50" relative="1" as="geometry">
            <mxPoint x="449.5" y="260" as="sourcePoint" />
            <mxPoint x="449.5" y="140" as="targetPoint" />
          </mxGeometry>
        </mxCell>
        <mxCell id="9mhjYZKvzieSpXCSwD0C-21" value="Putbull&lt;div&gt;&amp;gt;&amp;gt;class&amp;lt;&amp;lt;&lt;/div&gt;&lt;div style=&quot;text-align: left;&quot;&gt;&lt;p style=&quot;text-indent:-18.0pt;mso-list:l0 level1 lfo1&quot; class=&quot;MsoListParagraphCxSpFirst&quot;&gt;&lt;span data-sider-select-id=&quot;b0edea8a-fda8-42fe-b28e-c22656f06547&quot; style=&quot;mso-bidi-font-size:12.0pt;line-height:150%;font-family:&amp;quot;Courier New&amp;quot;;&lt;br/&gt;mso-fareast-font-family:&amp;quot;Courier New&amp;quot;&quot;&gt;o&lt;span style=&quot;font-variant-numeric: normal; font-variant-east-asian: normal; font-variant-alternates: normal; font-kerning: auto; font-optical-sizing: auto; font-feature-settings: normal; font-variation-settings: normal; font-variant-position: normal; font-stretch: normal; font-size: 7pt; line-height: normal; font-family: &amp;quot;Times New Roman&amp;quot;;&quot;&gt;&amp;nbsp;&amp;nbsp; &lt;/span&gt;&lt;/span&gt;&lt;span style=&quot;mso-bidi-font-size:12.0pt;line-height:150%&quot;&gt;int position;&lt;/span&gt;&lt;/p&gt;&lt;p style=&quot;text-indent:-18.0pt;mso-list:l0 level1 lfo1&quot; class=&quot;MsoListParagraphCxSpMiddle&quot;&gt;&lt;span style=&quot;mso-bidi-font-size:12.0pt;line-height:150%;font-family:&amp;quot;Courier New&amp;quot;;&lt;br/&gt;mso-fareast-font-family:&amp;quot;Courier New&amp;quot;&quot;&gt;o&lt;span style=&quot;font-variant-numeric: normal; font-variant-east-asian: normal; font-variant-alternates: normal; font-kerning: auto; font-optical-sizing: auto; font-feature-settings: normal; font-variation-settings: normal; font-variant-position: normal; font-stretch: normal; font-size: 7pt; line-height: normal; font-family: &amp;quot;Times New Roman&amp;quot;;&quot;&gt;&amp;nbsp;&amp;nbsp; &lt;/span&gt;&lt;/span&gt;&lt;span style=&quot;mso-bidi-font-size:12.0pt;line-height:150%&quot;&gt;int averageLength;&lt;/span&gt;&lt;/p&gt;&lt;p style=&quot;text-indent:-18.0pt;mso-list:l0 level1 lfo1&quot; class=&quot;MsoListParagraphCxSpMiddle&quot;&gt;&lt;span style=&quot;text-indent: -18pt; background-color: initial; line-height: 150%;&quot;&gt;&lt;span style=&quot;font-variant-numeric: normal; font-variant-east-asian: normal; font-variant-alternates: normal; font-kerning: auto; font-optical-sizing: auto; font-feature-settings: normal; font-variation-settings: normal; font-variant-position: normal; font-stretch: normal; line-height: normal;&quot;&gt;&lt;font face=&quot;Courier New&quot;&gt;+&lt;/font&gt;&lt;/span&gt;&lt;span style=&quot;font-family: &amp;quot;Times New Roman&amp;quot;; font-variant-numeric: normal; font-variant-east-asian: normal; font-variant-alternates: normal; font-kerning: auto; font-optical-sizing: auto; font-feature-settings: normal; font-variation-settings: normal; font-variant-position: normal; font-stretch: normal; font-size: 7pt; line-height: normal;&quot;&gt;&amp;nbsp; &amp;nbsp;&lt;/span&gt;&lt;/span&gt;&lt;span style=&quot;text-indent: -18pt; background-color: initial; line-height: 150%;&quot;&gt;void move();&lt;/span&gt;&lt;/p&gt;&lt;p style=&quot;text-indent:-18.0pt;mso-list:l0 level1 lfo1&quot; class=&quot;MsoListParagraphCxSpMiddle&quot;&gt;&lt;span style=&quot;text-indent: -18pt; background-color: initial; font-variant-numeric: normal; font-variant-east-asian: normal; font-variant-alternates: normal; font-kerning: auto; font-optical-sizing: auto; font-feature-settings: normal; font-variation-settings: normal; font-variant-position: normal; font-stretch: normal; line-height: normal;&quot;&gt;&lt;font face=&quot;Courier New&quot;&gt;+&lt;/font&gt;&lt;/span&gt;&lt;span style=&quot;text-indent: -18pt; background-color: initial; font-variant-numeric: normal; font-variant-east-asian: normal; font-variant-alternates: normal; font-kerning: auto; font-optical-sizing: auto; font-feature-settings: normal; font-variation-settings: normal; font-variant-position: normal; font-stretch: normal; font-size: 7pt; line-height: normal; font-family: &amp;quot;Times New Roman&amp;quot;;&quot;&gt;&amp;nbsp; &amp;nbsp;&lt;/span&gt;&lt;span style=&quot;text-indent: -18pt; background-color: initial;&quot;&gt;void describe();&lt;/span&gt;&lt;/p&gt;&lt;/div&gt;" style="rounded=0;whiteSpace=wrap;html=1;" vertex="1" parent="1">
          <mxGeometry x="10" y="600" width="170" height="170" as="geometry" />
        </mxCell>
        <mxCell id="9mhjYZKvzieSpXCSwD0C-22" value="Siberianhusky&lt;div&gt;&amp;gt;&amp;gt;class&amp;lt;&amp;lt;&lt;/div&gt;&lt;div style=&quot;text-align: left;&quot;&gt;&lt;p style=&quot;text-indent: -18pt;&quot; class=&quot;MsoListParagraphCxSpFirst&quot;&gt;&lt;span style=&quot;line-height: 18px; font-family: &amp;quot;Courier New&amp;quot;;&quot; data-sider-select-id=&quot;b0edea8a-fda8-42fe-b28e-c22656f06547&quot;&gt;o&lt;span style=&quot;font-variant-numeric: normal; font-variant-east-asian: normal; font-variant-alternates: normal; font-kerning: auto; font-optical-sizing: auto; font-feature-settings: normal; font-variation-settings: normal; font-variant-position: normal; font-stretch: normal; font-size: 7pt; line-height: normal; font-family: &amp;quot;Times New Roman&amp;quot;;&quot;&gt;&amp;nbsp;&amp;nbsp;&amp;nbsp;&lt;/span&gt;&lt;/span&gt;&lt;span style=&quot;line-height: 18px;&quot;&gt;int position;&lt;/span&gt;&lt;/p&gt;&lt;p style=&quot;text-indent: -18pt;&quot; class=&quot;MsoListParagraphCxSpMiddle&quot;&gt;&lt;span style=&quot;line-height: 18px; font-family: &amp;quot;Courier New&amp;quot;;&quot;&gt;o&lt;span style=&quot;font-variant-numeric: normal; font-variant-east-asian: normal; font-variant-alternates: normal; font-kerning: auto; font-optical-sizing: auto; font-feature-settings: normal; font-variation-settings: normal; font-variant-position: normal; font-stretch: normal; font-size: 7pt; line-height: normal; font-family: &amp;quot;Times New Roman&amp;quot;;&quot;&gt;&amp;nbsp;&amp;nbsp;&amp;nbsp;&lt;/span&gt;&lt;/span&gt;&lt;span style=&quot;line-height: 18px;&quot;&gt;int averageLength;&lt;/span&gt;&lt;/p&gt;&lt;p style=&quot;text-indent: -18pt;&quot; class=&quot;MsoListParagraphCxSpMiddle&quot;&gt;&lt;span style=&quot;text-indent: -18pt; background-color: initial; line-height: 18px;&quot;&gt;&lt;span style=&quot;font-variant-numeric: normal; font-variant-east-asian: normal; font-variant-alternates: normal; font-kerning: auto; font-optical-sizing: auto; font-feature-settings: normal; font-variation-settings: normal; font-variant-position: normal; font-stretch: normal; line-height: normal;&quot;&gt;&lt;font face=&quot;Courier New&quot;&gt;+&lt;/font&gt;&lt;/span&gt;&lt;span style=&quot;font-family: &amp;quot;Times New Roman&amp;quot;; font-variant-numeric: normal; font-variant-east-asian: normal; font-variant-alternates: normal; font-kerning: auto; font-optical-sizing: auto; font-feature-settings: normal; font-variation-settings: normal; font-variant-position: normal; font-stretch: normal; font-size: 7pt; line-height: normal;&quot;&gt;&amp;nbsp; &amp;nbsp;&lt;/span&gt;&lt;/span&gt;&lt;span style=&quot;text-indent: -18pt; background-color: initial; line-height: 18px;&quot;&gt;void move();&lt;/span&gt;&lt;/p&gt;&lt;p style=&quot;text-indent: -18pt;&quot; class=&quot;MsoListParagraphCxSpMiddle&quot;&gt;&lt;span style=&quot;text-indent: -18pt; background-color: initial; font-variant-numeric: normal; font-variant-east-asian: normal; font-variant-alternates: normal; font-kerning: auto; font-optical-sizing: auto; font-feature-settings: normal; font-variation-settings: normal; font-variant-position: normal; font-stretch: normal; line-height: normal;&quot;&gt;&lt;font face=&quot;Courier New&quot;&gt;+&lt;/font&gt;&lt;/span&gt;&lt;span style=&quot;text-indent: -18pt; background-color: initial; font-variant-numeric: normal; font-variant-east-asian: normal; font-variant-alternates: normal; font-kerning: auto; font-optical-sizing: auto; font-feature-settings: normal; font-variation-settings: normal; font-variant-position: normal; font-stretch: normal; font-size: 7pt; line-height: normal; font-family: &amp;quot;Times New Roman&amp;quot;;&quot;&gt;&amp;nbsp; &amp;nbsp;&lt;/span&gt;&lt;span style=&quot;text-indent: -18pt; background-color: initial;&quot;&gt;void describe();&lt;/span&gt;&lt;/p&gt;&lt;/div&gt;" style="rounded=0;whiteSpace=wrap;html=1;" vertex="1" parent="1">
          <mxGeometry x="240" y="600" width="160" height="170" as="geometry" />
        </mxCell>
        <mxCell id="9mhjYZKvzieSpXCSwD0C-23" value="Germanshepherd&lt;div&gt;&amp;gt;&amp;gt;class&amp;lt;&amp;lt;&lt;/div&gt;&lt;div style=&quot;text-align: left;&quot;&gt;&lt;p style=&quot;text-indent: -18pt;&quot; class=&quot;MsoListParagraphCxSpFirst&quot;&gt;&lt;span style=&quot;line-height: 18px; font-family: &amp;quot;Courier New&amp;quot;;&quot; data-sider-select-id=&quot;b0edea8a-fda8-42fe-b28e-c22656f06547&quot;&gt;o&lt;span style=&quot;font-variant-numeric: normal; font-variant-east-asian: normal; font-variant-alternates: normal; font-kerning: auto; font-optical-sizing: auto; font-feature-settings: normal; font-variation-settings: normal; font-variant-position: normal; font-stretch: normal; font-size: 7pt; line-height: normal; font-family: &amp;quot;Times New Roman&amp;quot;;&quot;&gt;&amp;nbsp;&amp;nbsp;&amp;nbsp;&lt;/span&gt;&lt;/span&gt;&lt;span style=&quot;line-height: 18px;&quot;&gt;int position;&lt;/span&gt;&lt;/p&gt;&lt;p style=&quot;text-indent: -18pt;&quot; class=&quot;MsoListParagraphCxSpMiddle&quot;&gt;&lt;span style=&quot;line-height: 18px; font-family: &amp;quot;Courier New&amp;quot;;&quot;&gt;o&lt;span style=&quot;font-variant-numeric: normal; font-variant-east-asian: normal; font-variant-alternates: normal; font-kerning: auto; font-optical-sizing: auto; font-feature-settings: normal; font-variation-settings: normal; font-variant-position: normal; font-stretch: normal; font-size: 7pt; line-height: normal; font-family: &amp;quot;Times New Roman&amp;quot;;&quot;&gt;&amp;nbsp;&amp;nbsp;&amp;nbsp;&lt;/span&gt;&lt;/span&gt;&lt;span style=&quot;line-height: 18px;&quot;&gt;int averageLength;&lt;/span&gt;&lt;/p&gt;&lt;p style=&quot;text-indent: -18pt;&quot; class=&quot;MsoListParagraphCxSpMiddle&quot;&gt;&lt;span style=&quot;text-indent: -18pt; background-color: initial; line-height: 18px;&quot;&gt;&lt;span style=&quot;font-variant-numeric: normal; font-variant-east-asian: normal; font-variant-alternates: normal; font-kerning: auto; font-optical-sizing: auto; font-feature-settings: normal; font-variation-settings: normal; font-variant-position: normal; font-stretch: normal; line-height: normal;&quot;&gt;&lt;font face=&quot;Courier New&quot;&gt;+&lt;/font&gt;&lt;/span&gt;&lt;span style=&quot;font-family: &amp;quot;Times New Roman&amp;quot;; font-variant-numeric: normal; font-variant-east-asian: normal; font-variant-alternates: normal; font-kerning: auto; font-optical-sizing: auto; font-feature-settings: normal; font-variation-settings: normal; font-variant-position: normal; font-stretch: normal; font-size: 7pt; line-height: normal;&quot;&gt;&amp;nbsp; &amp;nbsp;&lt;/span&gt;&lt;/span&gt;&lt;span style=&quot;text-indent: -18pt; background-color: initial; line-height: 18px;&quot;&gt;void move();&lt;/span&gt;&lt;/p&gt;&lt;p style=&quot;text-indent: -18pt;&quot; class=&quot;MsoListParagraphCxSpMiddle&quot;&gt;&lt;span style=&quot;text-indent: -18pt; background-color: initial; font-variant-numeric: normal; font-variant-east-asian: normal; font-variant-alternates: normal; font-kerning: auto; font-optical-sizing: auto; font-feature-settings: normal; font-variation-settings: normal; font-variant-position: normal; font-stretch: normal; line-height: normal;&quot;&gt;&lt;font face=&quot;Courier New&quot;&gt;+&lt;/font&gt;&lt;/span&gt;&lt;span style=&quot;text-indent: -18pt; background-color: initial; font-variant-numeric: normal; font-variant-east-asian: normal; font-variant-alternates: normal; font-kerning: auto; font-optical-sizing: auto; font-feature-settings: normal; font-variation-settings: normal; font-variant-position: normal; font-stretch: normal; font-size: 7pt; line-height: normal; font-family: &amp;quot;Times New Roman&amp;quot;;&quot;&gt;&amp;nbsp; &amp;nbsp;&lt;/span&gt;&lt;span style=&quot;text-indent: -18pt; background-color: initial;&quot;&gt;void describe();&lt;/span&gt;&lt;/p&gt;&lt;/div&gt;" style="rounded=0;whiteSpace=wrap;html=1;" vertex="1" parent="1">
          <mxGeometry x="480" y="600" width="170" height="170" as="geometry" />
        </mxCell>
        <mxCell id="9mhjYZKvzieSpXCSwD0C-24" value="Bulldog&lt;div&gt;&amp;gt;&amp;gt;class&amp;lt;&amp;lt;&lt;/div&gt;&lt;div style=&quot;text-align: left;&quot;&gt;&lt;p style=&quot;text-indent: -18pt;&quot; class=&quot;MsoListParagraphCxSpFirst&quot;&gt;&lt;span style=&quot;line-height: 18px; font-family: &amp;quot;Courier New&amp;quot;;&quot; data-sider-select-id=&quot;b0edea8a-fda8-42fe-b28e-c22656f06547&quot;&gt;o&lt;span style=&quot;font-variant-numeric: normal; font-variant-east-asian: normal; font-variant-alternates: normal; font-kerning: auto; font-optical-sizing: auto; font-feature-settings: normal; font-variation-settings: normal; font-variant-position: normal; font-stretch: normal; font-size: 7pt; line-height: normal; font-family: &amp;quot;Times New Roman&amp;quot;;&quot;&gt;&amp;nbsp;&amp;nbsp;&amp;nbsp;&lt;/span&gt;&lt;/span&gt;&lt;span style=&quot;line-height: 18px;&quot;&gt;int position;&lt;/span&gt;&lt;/p&gt;&lt;p style=&quot;text-indent: -18pt;&quot; class=&quot;MsoListParagraphCxSpMiddle&quot;&gt;&lt;span style=&quot;line-height: 18px; font-family: &amp;quot;Courier New&amp;quot;;&quot;&gt;o&lt;span style=&quot;font-variant-numeric: normal; font-variant-east-asian: normal; font-variant-alternates: normal; font-kerning: auto; font-optical-sizing: auto; font-feature-settings: normal; font-variation-settings: normal; font-variant-position: normal; font-stretch: normal; font-size: 7pt; line-height: normal; font-family: &amp;quot;Times New Roman&amp;quot;;&quot;&gt;&amp;nbsp;&amp;nbsp;&amp;nbsp;&lt;/span&gt;&lt;/span&gt;&lt;span style=&quot;line-height: 18px;&quot;&gt;int averageLength;&lt;/span&gt;&lt;/p&gt;&lt;p style=&quot;text-indent: -18pt;&quot; class=&quot;MsoListParagraphCxSpMiddle&quot;&gt;&lt;span style=&quot;text-indent: -18pt; background-color: initial; line-height: 18px;&quot;&gt;&lt;span style=&quot;font-variant-numeric: normal; font-variant-east-asian: normal; font-variant-alternates: normal; font-kerning: auto; font-optical-sizing: auto; font-feature-settings: normal; font-variation-settings: normal; font-variant-position: normal; font-stretch: normal; line-height: normal;&quot;&gt;&lt;font face=&quot;Courier New&quot;&gt;+&lt;/font&gt;&lt;/span&gt;&lt;span style=&quot;font-family: &amp;quot;Times New Roman&amp;quot;; font-variant-numeric: normal; font-variant-east-asian: normal; font-variant-alternates: normal; font-kerning: auto; font-optical-sizing: auto; font-feature-settings: normal; font-variation-settings: normal; font-variant-position: normal; font-stretch: normal; font-size: 7pt; line-height: normal;&quot;&gt;&amp;nbsp; &amp;nbsp;&lt;/span&gt;&lt;/span&gt;&lt;span style=&quot;text-indent: -18pt; background-color: initial; line-height: 18px;&quot;&gt;void move();&lt;/span&gt;&lt;/p&gt;&lt;p style=&quot;text-indent: -18pt;&quot; class=&quot;MsoListParagraphCxSpMiddle&quot;&gt;&lt;span style=&quot;text-indent: -18pt; background-color: initial; font-variant-numeric: normal; font-variant-east-asian: normal; font-variant-alternates: normal; font-kerning: auto; font-optical-sizing: auto; font-feature-settings: normal; font-variation-settings: normal; font-variant-position: normal; font-stretch: normal; line-height: normal;&quot;&gt;&lt;font face=&quot;Courier New&quot;&gt;+&lt;/font&gt;&lt;/span&gt;&lt;span style=&quot;text-indent: -18pt; background-color: initial; font-variant-numeric: normal; font-variant-east-asian: normal; font-variant-alternates: normal; font-kerning: auto; font-optical-sizing: auto; font-feature-settings: normal; font-variation-settings: normal; font-variant-position: normal; font-stretch: normal; font-size: 7pt; line-height: normal; font-family: &amp;quot;Times New Roman&amp;quot;;&quot;&gt;&amp;nbsp; &amp;nbsp;&lt;/span&gt;&lt;span style=&quot;text-indent: -18pt; background-color: initial;&quot;&gt;void describe();&lt;/span&gt;&lt;/p&gt;&lt;/div&gt;" style="rounded=0;whiteSpace=wrap;html=1;" vertex="1" parent="1">
          <mxGeometry x="720" y="600" width="160" height="170" as="geometry" />
        </mxCell>
        <mxCell id="9mhjYZKvzieSpXCSwD0C-25" value="" style="endArrow=none;html=1;rounded=0;" edge="1" parent="1">
          <mxGeometry width="50" height="50" relative="1" as="geometry">
            <mxPoint x="80" y="520" as="sourcePoint" />
            <mxPoint x="802" y="520" as="targetPoint" />
          </mxGeometry>
        </mxCell>
        <mxCell id="9mhjYZKvzieSpXCSwD0C-26" value="" style="endArrow=none;html=1;rounded=0;entryX=0.5;entryY=0;entryDx=0;entryDy=0;" edge="1" parent="1" target="9mhjYZKvzieSpXCSwD0C-22">
          <mxGeometry width="50" height="50" relative="1" as="geometry">
            <mxPoint x="320" y="520" as="sourcePoint" />
            <mxPoint x="480" y="510" as="targetPoint" />
          </mxGeometry>
        </mxCell>
        <mxCell id="9mhjYZKvzieSpXCSwD0C-27" value="" style="endArrow=none;html=1;rounded=0;exitX=0.418;exitY=-0.024;exitDx=0;exitDy=0;exitPerimeter=0;" edge="1" parent="1" source="9mhjYZKvzieSpXCSwD0C-21">
          <mxGeometry width="50" height="50" relative="1" as="geometry">
            <mxPoint x="430" y="560" as="sourcePoint" />
            <mxPoint x="81" y="520" as="targetPoint" />
          </mxGeometry>
        </mxCell>
        <mxCell id="9mhjYZKvzieSpXCSwD0C-28" value="" style="endArrow=none;html=1;rounded=0;exitX=0.5;exitY=0;exitDx=0;exitDy=0;" edge="1" parent="1" source="9mhjYZKvzieSpXCSwD0C-24">
          <mxGeometry width="50" height="50" relative="1" as="geometry">
            <mxPoint x="800" y="594" as="sourcePoint" />
            <mxPoint x="800" y="520" as="targetPoint" />
          </mxGeometry>
        </mxCell>
        <mxCell id="9mhjYZKvzieSpXCSwD0C-29" value="" style="endArrow=none;html=1;rounded=0;exitX=0.465;exitY=0;exitDx=0;exitDy=0;exitPerimeter=0;" edge="1" parent="1" source="9mhjYZKvzieSpXCSwD0C-23">
          <mxGeometry width="50" height="50" relative="1" as="geometry">
            <mxPoint x="550" y="590" as="sourcePoint" />
            <mxPoint x="560" y="520" as="targetPoint" />
          </mxGeometry>
        </mxCell>
        <mxCell id="9mhjYZKvzieSpXCSwD0C-30" value="" style="endArrow=classic;html=1;rounded=0;entryX=0.45;entryY=1;entryDx=0;entryDy=0;entryPerimeter=0;" edge="1" parent="1" target="9mhjYZKvzieSpXCSwD0C-2">
          <mxGeometry width="50" height="50" relative="1" as="geometry">
            <mxPoint x="440" y="520" as="sourcePoint" />
            <mxPoint x="480" y="510" as="targetPoint" />
          </mxGeometry>
        </mxCell>
      </root>
    </mxGraphModel>
  </diagram>
</mxfile>
